<svg width="251" height="113" viewBox="0 0 251 113" fill="none" xmlns="http://www.w3.org/2000/svg">
<path d="M21.6687 24.8282L65.0641 0L108.341 24.8282L64.8597 50L21.6687 24.8282Z" fill="white"/>
<path d="M21.7994 24.9292L64.999 50.0966L65.1355 99.9895L21.5955 74.9196L21.7994 24.9292Z" fill="black"/>
<path d="M64.838 99.9895L65.0339 49.994L108.174 24.9292L108.233 75.171L64.838 99.9895Z" fill="#FFFF00"/>
<path d="M92.4908 53.3794L92.5441 39.7694L104.288 32.9462L104.304 46.6232L92.4908 53.3794Z" fill="white" stroke="white" stroke-width="0.272224"/>
<path d="M95.6661 49.2786L95.6909 42.95L101.152 39.7773L101.159 46.137L95.6661 49.2786Z" fill="black" stroke="black" stroke-width="0.126582"/>
<path d="M68.9058 66.9988L68.9591 53.3888L80.703 46.5656L80.719 60.2426L68.9058 66.9988Z" fill="white" stroke="white" stroke-width="0.272224"/>
<path d="M72.0811 62.8979L72.1059 56.5694L77.5667 53.3966L77.5741 59.7564L72.0811 62.8979Z" fill="black" stroke="black" stroke-width="0.126582"/>
<path d="M120.628 71.8057V36.4777H128.5V71.8057H120.628ZM141.892 71.8057L131.62 56.7337H140.26L151.012 71.8057H141.892ZM126.388 60.5737V54.3817H135.028C136.18 54.3817 137.172 54.1577 138.004 53.7097C138.868 53.2297 139.524 52.5737 139.972 51.7417C140.452 50.8777 140.692 49.8857 140.692 48.7657C140.692 47.6457 140.452 46.6697 139.972 45.8377C139.524 44.9737 138.868 44.3177 138.004 43.8697C137.172 43.3897 136.18 43.1497 135.028 43.1497H126.388V36.4777H134.404C137.316 36.4777 139.844 36.9257 141.988 37.8217C144.132 38.6857 145.78 39.9817 146.932 41.7097C148.084 43.4377 148.66 45.6137 148.66 48.2377V49.0057C148.66 51.5977 148.068 53.7577 146.884 55.4857C145.732 57.1817 144.084 58.4617 141.94 59.3257C139.828 60.1577 137.316 60.5737 134.404 60.5737H126.388ZM156.507 71.8057V45.5017H164.187V71.8057H156.507ZM153.003 51.1657V45.5017H164.187V51.1657H153.003ZM159.483 42.9097C158.043 42.9097 156.971 42.5417 156.267 41.8057C155.595 41.0377 155.259 40.0777 155.259 38.9257C155.259 37.7417 155.595 36.7817 156.267 36.0457C156.971 35.2777 158.043 34.8937 159.483 34.8937C160.923 34.8937 161.979 35.2777 162.651 36.0457C163.355 36.7817 163.707 37.7417 163.707 38.9257C163.707 40.0777 163.355 41.0377 162.651 41.8057C161.979 42.5417 160.923 42.9097 159.483 42.9097ZM181.658 82.2697C180.378 82.2697 179.066 82.2217 177.722 82.1257C176.378 82.0297 175.146 81.9017 174.026 81.7417V75.2617C175.146 75.4217 176.378 75.5497 177.722 75.6457C179.098 75.7737 180.346 75.8377 181.466 75.8377C183.546 75.8377 185.226 75.5977 186.506 75.1177C187.818 74.6377 188.778 73.9017 189.386 72.9097C189.994 71.9497 190.298 70.7017 190.298 69.1657V63.9337L191.69 60.8617C191.626 63.1977 191.162 65.1977 190.298 66.8617C189.466 68.5257 188.298 69.8057 186.794 70.7017C185.29 71.5657 183.498 71.9977 181.418 71.9977C179.626 71.9977 177.994 71.6777 176.522 71.0377C175.082 70.3657 173.85 69.4377 172.826 68.2537C171.802 67.0697 171.018 65.6937 170.474 64.1257C169.93 62.5257 169.658 60.7977 169.658 58.9417V57.8377C169.658 55.9817 169.946 54.2537 170.522 52.6537C171.098 51.0537 171.93 49.6617 173.018 48.4777C174.106 47.2937 175.402 46.3817 176.906 45.7417C178.41 45.0697 180.074 44.7337 181.898 44.7337C184.01 44.7337 185.834 45.1977 187.37 46.1257C188.938 47.0537 190.17 48.4137 191.066 50.2057C191.962 51.9977 192.442 54.1577 192.506 56.6857L191.45 56.9737V45.5017H197.546V68.6857C197.546 71.9177 196.97 74.5257 195.818 76.5097C194.666 78.4937 192.906 79.9497 190.538 80.8777C188.202 81.8057 185.242 82.2697 181.658 82.2697ZM183.818 65.5177C185.002 65.5177 186.074 65.2617 187.034 64.7497C187.994 64.2057 188.746 63.4377 189.29 62.4457C189.866 61.4537 190.154 60.2537 190.154 58.8457V57.4537C190.154 56.0777 189.85 54.9257 189.242 53.9977C188.666 53.0377 187.898 52.3177 186.938 51.8377C185.978 51.3257 184.954 51.0697 183.866 51.0697C182.586 51.0697 181.45 51.3737 180.458 51.9817C179.466 52.5897 178.698 53.4377 178.154 54.5257C177.61 55.6137 177.338 56.8937 177.338 58.3657C177.338 59.8697 177.61 61.1657 178.154 62.2537C178.73 63.3097 179.498 64.1257 180.458 64.7017C181.45 65.2457 182.57 65.5177 183.818 65.5177ZM205.444 71.8057V45.5017H213.124V71.8057H205.444ZM201.94 51.1657V45.5017H213.124V51.1657H201.94ZM208.42 42.9097C206.98 42.9097 205.908 42.5417 205.204 41.8057C204.532 41.0377 204.196 40.0777 204.196 38.9257C204.196 37.7417 204.532 36.7817 205.204 36.0457C205.908 35.2777 206.98 34.8937 208.42 34.8937C209.86 34.8937 210.916 35.2777 211.588 36.0457C212.292 36.7817 212.644 37.7417 212.644 38.9257C212.644 40.0777 212.292 41.0377 211.588 41.8057C210.916 42.5417 209.86 42.9097 208.42 42.9097ZM231.075 72.6697C229.219 72.6697 227.523 72.3337 225.987 71.6617C224.483 70.9897 223.171 70.0617 222.051 68.8777C220.931 67.6617 220.067 66.2377 219.459 64.6057C218.883 62.9737 218.595 61.2137 218.595 59.3257V58.2217C218.595 56.3337 218.867 54.5737 219.411 52.9417C219.987 51.3097 220.803 49.8857 221.859 48.6697C222.947 47.4217 224.243 46.4617 225.747 45.7897C227.251 45.0857 228.931 44.7337 230.787 44.7337C232.899 44.7337 234.723 45.1977 236.259 46.1257C237.795 47.0217 238.995 48.3657 239.859 50.1577C240.723 51.9177 241.203 54.0937 241.299 56.6857L239.283 54.8137V36.7657H247.011V71.8057H240.915V60.9097H241.971C241.875 63.4057 241.347 65.5337 240.387 67.2937C239.459 69.0537 238.195 70.3977 236.595 71.3257C234.995 72.2217 233.155 72.6697 231.075 72.6697ZM232.995 66.2377C234.179 66.2377 235.251 65.9817 236.211 65.4697C237.203 64.9257 237.987 64.1417 238.563 63.1177C239.171 62.0937 239.475 60.8617 239.475 59.4217V57.6457C239.475 56.2377 239.171 55.0537 238.563 54.0937C237.955 53.1337 237.155 52.3977 236.163 51.8857C235.171 51.3737 234.099 51.1177 232.947 51.1177C231.667 51.1177 230.515 51.4537 229.491 52.1257C228.499 52.7657 227.715 53.6617 227.139 54.8137C226.563 55.9337 226.275 57.2457 226.275 58.7497C226.275 60.2857 226.563 61.6137 227.139 62.7337C227.715 63.8537 228.515 64.7177 229.539 65.3257C230.563 65.9337 231.715 66.2377 232.995 66.2377Z" fill="white"/>
</svg>
